<?xml version="1.0" encoding="UTF-8" standalone="no"?>
<svg width="21px" height="24px" viewBox="0 0 21 24" version="1.1" xmlns="http://www.w3.org/2000/svg" xmlns:xlink="http://www.w3.org/1999/xlink">
    <title>icon-calendar</title>
    <defs></defs>
    <g id="UI-Style-Guides" stroke="none" stroke-width="1" fill="none" fill-rule="evenodd" stroke-linecap="round">
        <g transform="translate(-626.000000, -6271.000000)" fill="#FFFFFF" fill-rule="nonzero" id="icon-calendar" stroke="#47474A">
            <g transform="translate(626.181818, 6272.000000)">
                <path d="M15.8888889,2.68888889 L18.6755556,2.68888889 C19.2133333,2.68888889 19.6533333,3.12888889 19.6533333,3.66666667 L19.6533333,17.6 M6.64888889,2.68888889 L13.3955556,2.68888889 M15.8888889,2.68888889 L18.6755556,2.68888889 C19.2133333,2.68888889 19.6533333,3.12888889 19.6533333,3.66666667 L19.6533333,20.8266667 C19.6533333,21.3644444 19.2133333,21.8044444 18.6755556,21.8044444 L4.74222222,21.8044444 L1.46666667,21.8044444 C0.928888889,21.8044444 0.488888889,21.3644444 0.488888889,20.8266667 L0.488888889,3.66666667 C0.488888889,3.12888889 0.928888889,2.68888889 1.46666667,2.68888889 L4.25333333,2.68888889" id="Shape"></path>
                <g id="Group" transform="translate(4.400000, 0.000000)" stroke-linejoin="round">
                    <path d="M1.12444444,0.195555556 C0.635555556,0.195555556 0.195555556,0.586666667 0.195555556,1.12444444 L0.195555556,4.84 C0.195555556,5.32888889 0.586666667,5.76888889 1.12444444,5.76888889 C1.61333333,5.76888889 2.05333333,5.37777778 2.05333333,4.84 L2.05333333,1.07555556 L2.05333333,1.17333333 C2.05333333,0.635555556 1.66222222,0.195555556 1.12444444,0.195555556 Z" id="Shape"></path>
                    <path d="M10.2177778,0.195555556 C9.72888889,0.195555556 9.28888889,0.586666667 9.28888889,1.12444444 L9.28888889,4.84 C9.28888889,5.32888889 9.68,5.76888889 10.2177778,5.76888889 C10.7066667,5.76888889 11.1466667,5.37777778 11.1466667,4.84 L11.1466667,1.07555556 L11.1466667,1.17333333 C11.1466667,0.635555556 10.7555556,0.195555556 10.2177778,0.195555556 Z" id="Shape"></path>
                </g>
            </g>
        </g>
    </g>
</svg>