<?xml version="1.0" encoding="UTF-8" standalone="no"?>
<svg width="35px" height="35px" viewBox="0 0 35 35" version="1.1" xmlns="http://www.w3.org/2000/svg" xmlns:xlink="http://www.w3.org/1999/xlink">
    <!-- Generator: Sketch 47.1 (45422) - http://www.bohemiancoding.com/sketch -->
    <title>icon-newbuilding</title>
    <desc>Created with Sketch.</desc>
    <defs>
        <rect id="path-1" x="0" y="0" width="35" height="35" rx="10"></rect>
    </defs>
    <g id="Clientes" stroke="none" stroke-width="1" fill="none" fill-rule="evenodd">
        <g id="Clientes-Settings" transform="translate(-499.000000, -464.000000)">
            <g id="My-Buildings" transform="translate(462.000000, 382.000000)">
                <g id="Group-29-Copy" transform="translate(20.000000, 73.000000)">
                    <g id="icon-newbuilding" transform="translate(17.000000, 9.000000)">
                        <mask id="mask-2" fill="white">
                            <use xlink:href="#path-1"></use>
                        </mask>
                        <use id="Mask-Copy-5" fill="#06B4FE" xlink:href="#path-1"></use>
                        <g id="New" transform="translate(13.000000, 13.000000)" fill="#FFFFFF">
                            <g id="Add-Icon">
                                <path d="M5.5,4.5 L5.5,0.509649515 C5.5,0.227652788 5.27614237,0 5,0 C4.73193359,0 4.5,0.22817786 4.5,0.509649515 L4.5,4.5 L0.509649515,4.5 C0.227652788,4.5 0,4.72385763 0,5 C0,5.26806641 0.22817786,5.5 0.509649515,5.5 L4.5,5.5 L4.5,9.49035048 C4.5,9.77234721 4.72385763,10 5,10 C5.26806641,10 5.5,9.77182214 5.5,9.49035048 L5.5,5.5 L9.49035048,5.5 C9.77234721,5.5 10,5.27614237 10,5 C10,4.73193359 9.77182214,4.5 9.49035048,4.5 L5.5,4.5 Z" id="Combined-Shape"></path>
                            </g>
                        </g>
                    </g>
                </g>
            </g>
        </g>
    </g>
</svg>