<?xml version="1.0" encoding="UTF-8" standalone="no"?>
<svg width="252px" height="81px" viewBox="0 0 252 81" version="1.1" xmlns="http://www.w3.org/2000/svg" xmlns:xlink="http://www.w3.org/1999/xlink">
    <!-- Generator: Sketch 46.2 (44496) - http://www.bohemiancoding.com/sketch -->
    <title>logo header</title>
    <desc>Created with Sketch.</desc>
    <defs>
        <filter x="-4.9%" y="-10.0%" width="107.8%" height="131.4%" filterUnits="objectBoundingBox" id="filter-1">
            <feOffset dx="0" dy="2" in="SourceAlpha" result="shadowOffsetOuter1"></feOffset>
            <feGaussianBlur stdDeviation="2" in="shadowOffsetOuter1" result="shadowBlurOuter1"></feGaussianBlur>
            <feColorMatrix values="0 0 0 0 0   0 0 0 0 0   0 0 0 0 0  0 0 0 0.5 0" type="matrix" in="shadowBlurOuter1" result="shadowMatrixOuter1"></feColorMatrix>
            <feMerge>
                <feMergeNode in="shadowMatrixOuter1"></feMergeNode>
                <feMergeNode in="SourceGraphic"></feMergeNode>
            </feMerge>
        </filter>
        <filter x="-9.8%" y="-7.1%" width="118.3%" height="120.0%" filterUnits="objectBoundingBox" id="filter-2">
            <feOffset dx="0" dy="2" in="SourceAlpha" result="shadowOffsetOuter1"></feOffset>
            <feGaussianBlur stdDeviation="2" in="shadowOffsetOuter1" result="shadowBlurOuter1"></feGaussianBlur>
            <feColorMatrix values="0 0 0 0 0   0 0 0 0 0   0 0 0 0 0  0 0 0 0.5 0" type="matrix" in="shadowBlurOuter1" result="shadowMatrixOuter1"></feColorMatrix>
            <feMerge>
                <feMergeNode in="shadowMatrixOuter1"></feMergeNode>
                <feMergeNode in="SourceGraphic"></feMergeNode>
            </feMerge>
        </filter>
    </defs>
    <g id="AgaveLab" stroke="none" stroke-width="1" fill="none" fill-rule="evenodd">
        <g id="Home" transform="translate(-132.000000, -14.000000)">
            <g id="logo-header" filter="url(#filter-1)" transform="translate(136.000000, 15.000000)">
                <g id="Logo-Agave-ventures-vector" filter="url(#filter-2)" fill="#652D90" opacity="0.8">
                    <g id="Layer_1" transform="translate(-0.000000, 0.000000)">
                        <g id="XMLID_3_">
                            <g id="XMLID_8_">
                                <polygon id="XMLID_13_" points="41.121196 0.421985816 29.6821809 51.097961 41.121196 48.5102837 52.8701091 51.097961"></polygon>
                                <polygon id="XMLID_12_" points="11.0852779 21.5574468 29.3949583 69.7015071 52.8701091 51.097961"></polygon>
                                <polygon id="XMLID_11_" points="71.4609653 21.5574468 53.1588434 69.7015071 29.6821809 51.097961"></polygon>
                                <polygon id="XMLID_10_" points="0.613749194 40.5031028 29.3949583 69.7015071 41.1589884 48.5554965"></polygon>
                                <polygon id="XMLID_9_" points="81.6588768 40.5031028 53.1588434 69.7015071 41.1136375 48.5554965"></polygon>
                            </g>
                        </g>
                    </g>
                </g>
                <g id="XMLID_5_" transform="translate(98.000000, 31.000000)" fill="#FFFFFF">
                    <g id="XMLID_32_">
                        <path d="M11.7126667,0.484666667 L20.6026667,23.312 L18.2713333,23.3073333 L15.508,16.21 L5.12733333,16.1873333 L2.36333333,23.2713333 L0.064,23.2666667 L9.284,0.479333333 L11.7126667,0.484666667 Z M14.7793333,14.3546667 L10.398,2.654 L5.80333333,14.3346667 L14.7793333,14.3546667 Z" id="XMLID_33_"></path>
                        <path d="M35.82,25.2946667 C35.55,26.2733333 35.1293333,27.102 34.552,27.7826667 C33.976,28.4633333 33.2246667,28.982 32.2973333,29.342 C31.3706667,29.704 30.236,29.882 28.894,29.8793333 C28.0633333,29.8773333 27.254,29.7773333 26.4673333,29.586 C25.6793333,29.3926667 24.9726667,29.092 24.3453333,28.6866667 C23.7173333,28.2813333 23.1966667,27.762 22.784,27.134 C22.3693333,26.506 22.1306667,25.7526667 22.0693333,24.8806667 L24.082,24.8853333 C24.188,25.502 24.394,26.0206667 24.7026667,26.4353333 C25.0093333,26.852 25.382,27.1886667 25.818,27.444 C26.254,27.6986667 26.7373333,27.888 27.2706667,28.006 C27.802,28.1246667 28.3446667,28.1866667 28.8993333,28.1866667 C30.7733333,28.1913333 32.126,27.6606667 32.9593333,26.5973333 C33.7926667,25.534 34.21,24.002 34.2146667,22.0006667 L34.2193333,19.7633333 L34.1553333,19.7633333 C33.6853333,20.7853333 32.9966667,21.6053333 32.0906667,22.22 C31.1833333,22.8346667 30.124,23.142 28.91,23.14 C27.59,23.1373333 26.4606667,22.9166667 25.5246667,22.4773333 C24.5893333,22.0406667 23.8186667,21.4353333 23.214,20.6653333 C22.6073333,19.9006667 22.168,18.9986667 21.894,17.9653333 C21.62,16.932 21.4833333,15.83 21.4866667,14.658 C21.4886667,13.5313333 21.656,12.4613333 21.9886667,11.4486667 C22.3213333,10.44 22.8026667,9.55666667 23.432,8.80333333 C24.0626667,8.04733333 24.8413333,7.45333333 25.7686667,7.01866667 C26.6953333,6.584 27.7546667,6.36733333 28.948,6.37 C29.5646667,6.372 30.1453333,6.45866667 30.688,6.62933333 C31.2293333,6.8 31.7246667,7.044 32.1713333,7.35133333 C32.6186667,7.66333333 33.0173333,8.02066667 33.3673333,8.42333333 C33.7166667,8.83066667 33.9886667,9.25666667 34.1786667,9.70266667 L34.2426667,9.70266667 L34.248,6.862 L36.2606667,6.86666667 L36.2266667,22.0066667 C36.224,23.2186667 36.0873333,24.3166667 35.82,25.2946667 Z M31.2133333,20.8926667 C31.8746667,20.5213333 32.43,20.034 32.8786667,19.4266667 C33.3266667,18.8186667 33.664,18.1246667 33.8893333,17.3366667 C34.1146667,16.5486667 34.2286667,15.7386667 34.2293333,14.91 C34.2313333,14.1 34.1373333,13.2913333 33.9486667,12.4813333 C33.7586667,11.6733333 33.4513333,10.938 33.0266667,10.2753333 C32.6033333,9.61533333 32.056,9.08066667 31.3866667,8.67533333 C30.7153333,8.27 29.902,8.06533333 28.944,8.06333333 C27.986,8.06133333 27.1653333,8.25466667 26.4833333,8.648 C25.8006667,9.042 25.2353333,9.554 24.7873333,10.194 C24.338,10.8333333 24.0106667,11.5593333 23.8073333,12.3793333 C23.6033333,13.1986667 23.5,14.0366667 23.498,14.888 C23.4973333,15.7166667 23.6013333,16.5266667 23.812,17.3146667 C24.024,18.1026667 24.352,18.8006667 24.798,19.4093333 C25.244,20.0166667 25.8066667,20.5086667 26.4873333,20.8846667 C27.168,21.256 27.976,21.4446667 28.914,21.4466667 C29.7866667,21.448 30.5526667,21.264 31.2133333,20.8926667 Z" id="XMLID_36_"></path>
                        <path d="M40.5033333,9.43066667 C40.846,8.72733333 41.31,8.15333333 41.8966667,7.70733333 C42.484,7.26133333 43.1706667,6.93333333 43.9593333,6.72133333 C44.7466667,6.512 45.6213333,6.40733333 46.5793333,6.40933333 C47.302,6.40933333 48.0273333,6.482 48.7506667,6.62066667 C49.4746667,6.75933333 50.1233333,7.02333333 50.6966667,7.40866667 C51.2713333,7.79133333 51.7373333,8.33266667 52.0993333,9.02466667 C52.4606667,9.71666667 52.6393333,10.618 52.6366667,11.7246667 L52.616,20.4773333 C52.614,21.288 53.0073333,21.6906667 53.7953333,21.6926667 C54.03,21.6926667 54.2426667,21.652 54.434,21.566 L54.4306667,23.2593333 C54.1946667,23.3026667 53.988,23.334 53.8066667,23.3553333 C53.626,23.3753333 53.3966667,23.3846667 53.1206667,23.3846667 C52.6093333,23.3846667 52.1986667,23.3146667 51.8913333,23.176 C51.5833333,23.0346667 51.3426667,22.8366667 51.174,22.5813333 C51.0033333,22.326 50.8933333,22.0233333 50.8406667,21.6706667 C50.7873333,21.3206667 50.762,20.9313333 50.7633333,20.5053333 L50.6993333,20.5053333 C50.3366667,21.036 49.9673333,21.5093333 49.594,21.926 C49.2193333,22.338 48.804,22.684 48.3453333,22.96 C47.8873333,23.2353333 47.364,23.4466667 46.7786667,23.5946667 C46.1926667,23.7426667 45.4946667,23.8133333 44.6853333,23.8133333 C43.918,23.8106667 43.2013333,23.7193333 42.5306667,23.538 C41.8593333,23.356 41.2753333,23.0666667 40.7753333,22.67 C40.2746667,22.274 39.882,21.7733333 39.5973333,21.168 C39.31,20.558 39.168,19.8386667 39.17,19.01 C39.172,17.86 39.4306667,16.9593333 39.9426667,16.3126667 C40.456,15.664 41.132,15.17 41.9746667,14.8333333 C42.816,14.494 43.7653333,14.2573333 44.8193333,14.1206667 C45.8733333,13.984 46.9433333,13.8546667 48.0313333,13.7266667 C48.4573333,13.6853333 48.8293333,13.6333333 49.1493333,13.5693333 C49.468,13.506 49.734,13.3966667 49.948,13.2366667 C50.1606667,13.0773333 50.326,12.8586667 50.4446667,12.5813333 C50.562,12.306 50.622,11.946 50.6233333,11.498 C50.624,10.8173333 50.514,10.2546667 50.2906667,9.818 C50.0686667,9.38333333 49.76,9.03733333 49.3673333,8.77733333 C48.9733333,8.52266667 48.516,8.34466667 47.9946667,8.24933333 C47.4733333,8.15133333 46.9146667,8.10333333 46.318,8.10133333 C45.0406667,8.09933333 43.996,8.39933333 43.1853333,9.00466667 C42.3753333,9.608 41.9473333,10.582 41.9006667,11.9253333 L39.888,11.9206667 C39.9573333,10.9626667 40.1613333,10.132 40.5033333,9.43066667 Z M50.554,14.3706667 C50.4253333,14.6053333 50.1806667,14.776 49.818,14.8826667 C49.456,14.9853333 49.136,15.0606667 48.8593333,15.104 C48.008,15.2493333 47.128,15.382 46.2233333,15.4953333 C45.3186667,15.6113333 44.492,15.7846667 43.7466667,16.0186667 C43.0013333,16.2506667 42.3873333,16.5833333 41.9073333,17.02 C41.4266667,17.4546667 41.1866667,18.076 41.1846667,18.8866667 C41.184,19.3966667 41.2833333,19.8493333 41.4866667,20.246 C41.6866667,20.64 41.958,20.9813333 42.2966667,21.268 C42.6373333,21.5573333 43.0313333,21.7753333 43.478,21.9253333 C43.924,22.076 44.3826667,22.1506667 44.8506667,22.1533333 C45.6173333,22.1553333 46.352,22.0366667 47.0553333,21.8053333 C47.7586667,21.5753333 48.3726667,21.234 48.8933333,20.788 C49.4173333,20.342 49.8326667,19.8 50.144,19.1626667 C50.4533333,18.5233333 50.6093333,17.8013333 50.612,16.9933333 L50.618,14.3733333 L50.554,14.3706667 Z" id="XMLID_39_"></path>
                        <polygon id="XMLID_42_" points="57.0553333 6.91333333 62.1966667 21.3933333 62.2606667 21.3933333 67.404 6.93533333 69.48 6.94 63.278 23.4073333 61.138 23.4026667 54.8186667 6.908"></polygon>
                        <path d="M72.9206667,17.9853333 C73.1206667,18.762 73.4446667,19.4586667 73.8906667,20.08 C74.3366667,20.6973333 74.8993333,21.2113333 75.5793333,21.6146667 C76.26,22.022 77.08,22.2273333 78.038,22.2293333 C79.508,22.232 80.658,21.8493333 81.4913333,21.0866667 C82.322,20.322 82.9,19.2993333 83.2213333,18.0246667 L85.234,18.0293333 C84.8033333,19.9006667 84.0186667,21.3486667 82.878,22.366 C81.7353333,23.3853333 80.1213333,23.8933333 78.034,23.8886667 C76.7353333,23.884 75.6113333,23.654 74.6653333,23.1946667 C73.72,22.7346667 72.948,22.106 72.3553333,21.3046667 C71.76,20.504 71.3206667,19.5773333 71.0353333,18.5233333 C70.7493333,17.4666667 70.6086667,16.354 70.612,15.184 C70.614,14.098 70.76,13.0326667 71.05,11.992 C71.3406667,10.9473333 71.7846667,10.016 72.3833333,9.19933333 C72.98,8.382 73.7546667,7.722 74.7026667,7.22333333 C75.6513333,6.72466667 76.7753333,6.47666667 78.0746667,6.48133333 C79.396,6.48333333 80.5226667,6.752 81.4606667,7.28666667 C82.396,7.822 83.154,8.52066667 83.7373333,9.38333333 C84.322,10.248 84.7413333,11.2386667 84.994,12.356 C85.2466667,13.476 85.3513333,14.6093333 85.306,15.7593333 L72.624,15.73 C72.6206667,16.4533333 72.7206667,17.2046667 72.9206667,17.9853333 Z M82.9026667,11.8553333 C82.6566667,11.154 82.3126667,10.5306667 81.8666667,9.986 C81.4206667,9.442 80.8786667,9.00266667 80.2413333,8.67266667 C79.604,8.34 78.88,8.174 78.07,8.174 C77.2386667,8.172 76.5046667,8.33333333 75.8646667,8.66066667 C75.224,8.99066667 74.68,9.42533333 74.2313333,9.96933333 C73.7833333,10.5093333 73.426,11.1373333 73.1573333,11.85 C72.89,12.5646667 72.7133333,13.2906667 72.626,14.0373333 L83.294,14.0626667 C83.276,13.296 83.144,12.5606667 82.9026667,11.8553333 Z" id="XMLID_44_"></path>
                        <polygon id="XMLID_47_" points="99.486 0.682 99.4386667 21.6366667 112.216 21.664 112.211333 23.5166667 97.262 23.4846667 97.3146667 0.677333333"></polygon>
                        <path d="M114.479333,9.59666667 C114.823333,8.89333333 115.287333,8.31933333 115.874667,7.874 C116.462,7.43 117.149333,7.1 117.937333,6.888 C118.725333,6.67866667 119.596667,6.574 120.555333,6.576 C121.279333,6.576 122.003333,6.64866667 122.727333,6.78733333 C123.451333,6.926 124.102,7.19 124.673333,7.57466667 C125.249333,7.95733333 125.716,8.49933333 126.078,9.19133333 C126.437333,9.88333333 126.615333,10.7846667 126.612667,11.8906667 L126.592667,20.644 C126.59,21.454 126.984,21.8566667 127.774,21.8593333 C128.006,21.8593333 128.22,21.818 128.411333,21.732 L128.408667,23.4253333 C128.172,23.4686667 127.964667,23.5006667 127.784667,23.5213333 C127.602667,23.542 127.372667,23.5513333 127.097333,23.5513333 C126.584667,23.5513333 126.175333,23.4806667 125.87,23.342 C125.560667,23.2033333 125.322,23.0026667 125.151333,22.7473333 C124.98,22.4926667 124.870667,22.19 124.818667,21.8373333 C124.764,21.4866667 124.741333,21.0973333 124.741333,20.6713333 L124.675333,20.6713333 C124.313333,21.202 123.944,21.6753333 123.571333,22.092 C123.197333,22.504 122.781333,22.8506667 122.324,23.126 C121.866667,23.4013333 121.342667,23.6126667 120.757333,23.7606667 C120.17,23.9093333 119.473333,23.9813333 118.662667,23.9793333 C117.898,23.9766667 117.178667,23.886 116.507333,23.704 C115.838,23.522 115.252667,23.2326667 114.754667,22.8366667 C114.253333,22.44 113.862,21.9393333 113.575333,21.334 C113.288,20.724 113.146667,20.0046667 113.149333,19.176 C113.151333,18.026 113.408667,17.1273333 113.920667,16.4786667 C114.433333,15.832 115.111333,15.336 115.953333,14.9986667 C116.794,14.6593333 117.745333,14.4226667 118.799333,14.286 C119.853333,14.1493333 120.923333,14.02 122.008667,13.892 C122.434667,13.8533333 122.808,13.7986667 123.126667,13.7353333 C123.446,13.674 123.712,13.5626667 123.928,13.4026667 C124.139333,13.2433333 124.305333,13.0246667 124.422,12.7473333 C124.538,12.474 124.599333,12.112 124.599333,11.664 C124.602,10.9833333 124.492667,10.4233333 124.269333,9.984 C124.046667,9.54933333 123.739333,9.20333333 123.345333,8.94333333 C122.951333,8.68866667 122.494,8.51333333 121.974667,8.41533333 C121.451333,8.31933333 120.893333,8.26933333 120.296667,8.26733333 C119.019333,8.26533333 117.972667,8.566 117.164667,9.17133333 C116.351333,9.77466667 115.924,10.7486667 115.880667,12.092 L113.868,12.0873333 C113.934667,11.1286667 114.14,10.298 114.479333,9.59666667 Z M124.529333,14.5386667 C124.402,14.7713333 124.158,14.9413333 123.796,15.0486667 C123.432,15.1513333 123.113333,15.226 122.837333,15.2693333 C121.984,15.4153333 121.102667,15.5473333 120.198667,15.6606667 C119.293333,15.7766667 118.468667,15.952 117.724667,16.1846667 C116.978,16.4166667 116.363333,16.7513333 115.884667,17.186 C115.402,17.6233333 115.163333,18.2426667 115.161333,19.0526667 C115.158667,19.5633333 115.258667,20.0153333 115.461333,20.412 C115.662,20.806 115.932667,21.1473333 116.272,21.434 C116.613333,21.7233333 117.007333,21.942 117.453333,22.094 C117.901333,22.242 118.358667,22.3166667 118.828,22.3193333 C119.592,22.322 120.328,22.2033333 121.031333,21.9713333 C121.735333,21.7413333 122.347333,21.4 122.870667,20.954 C123.392,20.508 123.808667,19.9666667 124.120667,19.3286667 C124.428,18.6886667 124.584667,17.9673333 124.587333,17.1586667 L124.592,14.5386667 L124.529333,14.5386667 L124.529333,14.5386667 Z" id="XMLID_49_"></path>
                        <path d="M132.674667,0.757333333 L132.654,10.214 L132.718,10.214 C132.932,9.61733333 133.236667,9.096 133.633333,8.65 C134.027333,8.204 134.48,7.826 134.992,7.51866667 C135.504,7.21133333 136.058,6.98333333 136.654,6.836 C137.252,6.688 137.848667,6.61466667 138.445333,6.61466667 C139.7,6.61933333 140.790667,6.856 141.716667,7.32733333 C142.641333,7.79666667 143.412667,8.43133333 144.027333,9.23266667 C144.642,10.0293333 145.096667,10.958 145.395333,12.012 C145.688667,13.068 145.837333,14.1813333 145.834667,15.354 C145.832667,16.524 145.68,17.6346667 145.381333,18.6886667 C145.078667,19.7426667 144.618667,20.6673333 144,21.466 C143.380667,22.2626667 142.606667,22.8886667 141.680667,23.346 C140.751333,23.8013333 139.659333,24.0266667 138.404667,24.022 C137.062,24.02 135.866667,23.71 134.812667,23.0913333 C133.760667,22.47 133.000667,21.5846667 132.536,20.4353333 L132.472,20.4326667 L132.462667,23.5626667 L130.61,23.5606667 L130.662667,0.753333333 L132.674667,0.757333333 Z M143.523333,12.8066667 C143.323333,11.9666667 143.004667,11.2153333 142.572,10.5526667 C142.134667,9.89266667 141.577333,9.35333333 140.896,8.93666667 C140.217333,8.52 139.398,8.31066667 138.439333,8.30866667 C137.374,8.30666667 136.475333,8.51133333 135.737333,8.92533333 C135.002,9.34 134.403333,9.87466667 133.945333,10.5353333 C133.486,11.1933333 133.153333,11.944 132.948667,12.7846667 C132.745333,13.6266667 132.643333,14.474 132.641333,15.3253333 C132.638667,16.1766667 132.737333,17.024 132.936667,17.864 C133.139333,18.706 133.467333,19.4573333 133.922667,20.12 C134.378667,20.78 134.974667,21.3193333 135.708,21.736 C136.443333,22.1526667 137.342,22.362 138.408,22.364 C139.366667,22.3666667 140.185333,22.1613333 140.866667,21.7473333 C141.549333,21.3326667 142.109333,20.798 142.548667,20.138 C142.985333,19.48 143.309333,18.7286667 143.511333,17.8866667 C143.714,17.0486667 143.818667,16.202 143.820667,15.3506667 C143.824,14.498 143.724,13.6513333 143.523333,12.8066667 Z" id="XMLID_52_"></path>
                    </g>
                </g>
            </g>
        </g>
    </g>
</svg>